<?xml version="1.0" standalone="no"?>
<!DOCTYPE svg PUBLIC "-//W3C//DTD SVG 20010904//EN"
 "http://www.w3.org/TR/2001/REC-SVG-20010904/DTD/svg10.dtd">
<svg version="1.0" xmlns="http://www.w3.org/2000/svg"
 width="1080.000000pt" height="752.000000pt" viewBox="0 0 1080.000000 752.000000"
 preserveAspectRatio="xMidYMid meet">

<g transform="translate(0.000000,752.000000) scale(0.100000,-0.100000)"
fill="#8C1B2C" stroke="none">
<path d="M874 6756 c-19 -14 -19 -64 -21 -3008 -2 -1646 -1 -3003 2 -3014 3
-12 15 -24 28 -28 13 -3 982 -6 2154 -6 1541 -1 2137 2 2152 10 l21 11 -21 41
c-11 22 -35 62 -53 87 -45 66 -96 152 -152 256 -26 50 -60 110 -75 135 -15 25
-55 92 -89 150 -33 58 -74 125 -90 150 -16 25 -34 54 -39 65 -5 12 -16 27 -24
34 -9 7 -18 24 -22 39 -3 15 -22 49 -41 76 l-36 49 -92 -7 c-50 -3 -599 -6
-1221 -7 -1267 -2 -1197 -5 -1211 66 -12 64 2 1339 15 1363 6 12 21 27 34 34
17 9 271 13 1079 16 l1057 4 29 -21 c17 -11 42 -42 57 -69 15 -26 46 -76 69
-112 51 -79 55 -86 107 -180 23 -41 51 -88 63 -105 23 -33 68 -113 91 -161 8
-17 32 -58 53 -90 21 -33 42 -66 46 -74 4 -8 20 -37 37 -65 16 -27 36 -65 44
-83 9 -18 31 -56 50 -83 19 -27 35 -51 35 -55 0 -6 127 -228 207 -362 29 -48
57 -97 62 -109 6 -12 25 -44 44 -70 34 -49 137 -228 137 -238 0 -3 19 -34 41
-68 23 -34 45 -72 50 -84 4 -12 26 -52 49 -88 22 -37 40 -69 40 -71 0 -3 8
-17 19 -32 45 -66 91 -143 130 -217 52 -99 74 -122 124 -136 40 -11 701 -12
830 -2 86 7 92 13 200 201 45 78 92 159 104 180 13 20 28 48 35 62 7 14 66
121 133 238 66 117 130 232 143 255 99 182 182 329 197 347 7 8 36 60 65 115
29 55 57 106 63 113 5 7 30 47 54 90 25 42 54 93 65 112 12 19 39 69 61 110
22 41 44 80 48 86 5 6 23 37 40 70 17 32 37 66 44 74 7 8 27 44 45 80 19 36
39 72 46 80 6 8 28 47 49 85 20 39 49 90 65 115 16 25 35 56 40 70 6 14 17 32
25 40 7 8 40 65 72 127 54 104 199 361 262 463 15 25 43 74 63 110 19 36 58
103 86 150 28 47 67 117 87 155 20 39 49 90 65 115 17 25 35 56 42 70 7 14 27
48 44 75 17 28 40 68 51 90 41 82 54 105 63 110 5 3 19 25 30 48 11 23 31 60
45 82 14 22 32 54 41 70 17 35 35 65 87 153 20 35 37 66 37 69 0 3 37 70 83
150 45 80 99 177 121 216 21 40 44 79 51 87 7 8 39 65 72 125 89 162 237 421
302 527 9 15 44 75 79 135 119 204 134 228 159 261 14 18 33 57 43 85 18 48
18 53 2 65 -13 10 -149 12 -643 10 l-627 -3 -27 -25 c-15 -14 -43 -56 -62 -94
-19 -38 -73 -136 -119 -217 -46 -81 -84 -150 -84 -153 0 -6 -86 -157 -157
-276 -24 -41 -53 -93 -64 -115 -10 -22 -30 -58 -44 -80 -14 -22 -44 -73 -67
-113 -24 -40 -52 -88 -63 -107 -11 -18 -72 -124 -135 -235 -63 -112 -122 -214
-130 -229 -8 -14 -38 -66 -65 -114 -28 -49 -59 -105 -71 -125 -12 -20 -37 -66
-57 -102 -19 -36 -60 -108 -90 -160 -30 -52 -115 -200 -189 -328 -73 -128
-143 -250 -156 -270 -12 -20 -31 -55 -42 -77 -11 -22 -31 -58 -44 -80 -13 -22
-33 -56 -43 -75 -11 -19 -65 -114 -120 -210 -55 -96 -155 -272 -222 -390 -151
-265 -142 -250 -163 -282 -9 -14 -40 -70 -69 -125 -28 -54 -66 -121 -85 -149
-18 -28 -39 -64 -46 -80 -7 -16 -27 -51 -44 -79 -17 -27 -51 -88 -75 -134 -65
-126 -102 -129 -156 -16 -13 28 -46 82 -73 120 -27 39 -66 103 -87 142 -54
104 -64 121 -107 187 -20 32 -42 68 -47 80 -5 12 -22 44 -38 71 -17 28 -36 64
-45 82 -35 77 -145 152 -286 198 -210 67 -205 63 -205 158 1 52 7 88 24 127
12 30 32 78 44 105 11 28 39 91 62 140 23 50 57 135 75 190 46 141 58 173 86
228 28 55 32 112 8 121 -9 3 -801 6 -1760 6 -1236 0 -1750 3 -1765 10 -11 6
-24 22 -29 36 -6 15 -10 281 -10 655 l0 630 25 24 24 25 1998 3 c1099 1 2120
1 2268 -1 l270 -4 22 24 c12 13 39 57 60 99 21 42 54 108 73 145 35 70 87 165
127 232 12 21 31 55 42 77 12 22 32 60 47 85 14 25 49 90 78 145 30 55 74 131
100 168 48 71 59 120 30 131 -9 3 -1432 6 -3163 6 -2693 0 -3150 -2 -3167 -14z"/>
</g>
</svg>
